<?xml version="1.0" encoding="utf-8"?>
<svg
  xmlns="http://www.w3.org/2000/svg"
  width="1024"
  height="1024"
  viewBox="0 0 1024 1024"
>
  <defs>
    <linearGradient
      id="gradient_0"
      gradientUnits="userSpaceOnUse"
      x1="565.50159"
      y1="467.1987"
      x2="740.95435"
      y2="646.12238"
    >
      <stop offset="0" stop-color="#1EB9E5" />
      <stop offset="1" stop-color="#414AED" />
    </linearGradient>
    <linearGradient
      id="gradient_1"
      gradientUnits="userSpaceOnUse"
      x1="568.62396"
      y1="487.87274"
      x2="483.12515"
      y2="402.37668"
    >
      <stop offset="0" stop-color="#1EB5EC" />
      <stop offset="1" stop-color="#01FFF9" />
    </linearGradient>
  </defs>
  <g transform="translate(512 512) scale(1.7) translate(-512 -512)">
    <path
      fill="#113764"
      d="M541.967 342.048C564.947 341.662 588.114 342.354 611.078 341.987C636.827 341.577 660.983 344.678 684.859 354.792C725.774 370.449 760.459 406.809 778.164 446.49C797.592 490.564 798.9 540.512 781.806 585.543C764.885 629.56 731.14 665.031 688.022 684.127C655.162 698.598 633.89 697.993 599.246 697.967C580.499 697.861 561.751 697.898 543.005 698.079C536.443 690.584 528.265 679.269 522.096 671.122C516.143 663.26 507.791 652.946 502.418 644.968C488.703 661.418 475.885 680.626 461.707 697.858C408.228 698.546 353.353 697.872 299.749 697.834L255.14 697.775C247.72 697.749 237.24 697.37 230.075 697.874L230.083 504.916C230.076 450.908 230.616 396.055 230.036 342.147L462.265 342.032C475.242 359.057 487.846 376.478 501.587 392.935C507.067 386.97 513.081 378.955 518.1 372.519L541.967 342.048ZM290.472 638.509L385.645 638.612C397.475 638.564 419.4 639.07 430.28 638.14C440.195 624.429 452.728 610.365 462.27 596.725C450.768 580.499 436.877 563.923 424.968 547.501L379.468 547.56C399.878 523.63 418.699 497.244 438.678 472.861C446.341 463.509 454.653 453.276 461.715 443.508C452.003 429.437 439.941 415.618 430.272 401.785C416.487 402.185 402.187 401.804 388.357 401.898C355.721 402.121 322.807 401.529 290.192 402.034C290.964 426.687 290.518 453.063 290.495 477.864L290.472 638.509ZM573.502 401.981C548.81 431.856 525.409 465.349 500.797 495.587C495.439 502.17 487.608 501.27 482.427 508.872C478.952 513.97 477.17 520.509 477.737 526.607C478.33 532.907 481.497 538.683 486.489 542.572C490.348 545.624 493.784 546.858 498.431 547.939L499.085 548.095L499.479 548.184C501.624 548.376 504.865 548.033 506.955 547.487C530.705 541.289 532.509 516.634 516.046 501.855L552.483 455.112C558.264 447.701 567.67 434.944 573.691 428.416C583.155 453.567 592.746 478.67 602.466 503.724C607.707 517.33 614.594 533.836 619.24 547.347C606.127 546.901 591.301 547.592 577.879 547.496L542.217 593.83C546.29 598.482 551.541 605.966 555.479 611.119C562.276 620.012 569.608 629.351 576.051 638.456C611.785 638.162 644.883 641.727 676.661 621.847C703.011 605.379 721.838 579.218 729.083 549.001C736.52 517.704 731.244 484.736 714.412 457.323C699.28 433.184 677.158 414.894 649.747 406.604C643.561 404.733 640.022 404.571 634.123 403.216C616.59 401.085 591.805 401.897 573.502 401.981Z"
    />
    <path
      fill="url(#gradient_0)"
      d="M684.859 354.792C725.774 370.449 760.459 406.809 778.164 446.49C797.592 490.564 798.9 540.512 781.806 585.543C764.885 629.56 731.14 665.031 688.022 684.127C655.162 698.598 633.89 697.993 599.246 697.967C580.499 697.861 561.751 697.898 543.005 698.079C536.443 690.584 528.265 679.269 522.096 671.122C516.143 663.26 507.791 652.946 502.418 644.968L542.217 593.83C546.29 598.482 551.541 605.966 555.479 611.119C562.276 620.012 569.608 629.351 576.051 638.456C611.785 638.162 644.883 641.727 676.661 621.847C703.011 605.379 721.838 579.218 729.083 549.001C736.52 517.704 731.244 484.736 714.412 457.323C699.28 433.184 677.158 414.894 649.747 406.604C643.561 404.733 640.022 404.571 634.123 403.216C634.787 402.94 634.488 403.145 635.002 402.573C633.532 402.351 633.973 402.568 632.749 401.881C634.575 400.716 638.331 401.944 638.762 400.936C641.417 394.723 647.129 391.733 651.645 387.543C661.856 378.071 670.287 366.297 682.147 358.954C682.803 357.318 682.457 357.502 681.86 355.342C683.083 355.269 683.722 355.243 684.859 354.792Z"
    />
    <path
      fill="url(#gradient_1)"
      d="M541.967 342.048C564.947 341.662 588.114 342.354 611.078 341.987C636.827 341.577 660.983 344.678 684.859 354.792C683.722 355.243 683.083 355.269 681.86 355.342C682.457 357.502 682.803 357.318 682.147 358.954C670.287 366.297 661.856 378.071 651.645 387.543C647.129 391.733 641.417 394.723 638.762 400.936C638.331 401.944 634.575 400.716 632.749 401.881C633.973 402.568 633.532 402.351 635.002 402.573C634.488 403.145 634.787 402.94 634.123 403.216C616.59 401.085 591.805 401.897 573.502 401.981C548.81 431.856 525.409 465.349 500.797 495.587C495.439 502.17 487.608 501.27 482.427 508.872C478.952 513.97 477.17 520.509 477.737 526.607C478.33 532.907 481.497 538.683 486.489 542.572C490.348 545.624 493.784 546.858 498.431 547.939L499.085 548.095L499.479 548.184C498.596 549.86 490.962 559.622 489.393 561.697C480.543 573.519 471.5 585.197 462.27 596.725C450.768 580.499 436.877 563.923 424.968 547.501L379.468 547.56C399.878 523.63 418.699 497.244 438.678 472.861C446.341 463.509 454.653 453.276 461.715 443.508C466.407 438.434 473.153 429.631 477.465 424.1L501.587 392.935C507.067 386.97 513.081 378.955 518.1 372.519L541.967 342.048Z"
    />
  </g>
</svg>
